<?xml version="1.0" encoding="UTF-8" standalone="no"?>
<!DOCTYPE svg PUBLIC "-//W3C//DTD SVG 1.1//EN" "http://www.w3.org/Graphics/SVG/1.1/DTD/svg11.dtd">
<svg width="100%" height="100%" viewBox="0 0 1024 1024" version="1.1" xmlns="http://www.w3.org/2000/svg" xmlns:xlink="http://www.w3.org/1999/xlink" xml:space="preserve" xmlns:serif="http://www.serif.com/" style="fill-rule:evenodd;clip-rule:evenodd;">
    <g id="Outer-Triangle" serif:id="Outer Triangle">
        <path d="M272.43,323.56C272.43,291.479 246.031,265.08 213.95,265.08C181.869,265.08 155.47,291.479 155.47,323.56C155.47,355.641 181.869,382.04 213.95,382.04C246.031,382.04 272.43,355.641 272.43,323.56" style="fill:rgb(230,217,245);fill-rule:nonzero;stroke:rgb(214,156,195);stroke-opacity:0;stroke-width:2px;"/>
        <path d="M863.498,330.88C867.516,299.068 844.561,269.573 812.646,265.541C780.73,261.509 751.161,284.369 747.142,316.181C743.124,347.992 766.079,377.487 797.994,381.519C829.91,385.551 859.479,362.691 863.498,330.88" style="fill:rgb(230,217,245);fill-rule:nonzero;stroke:rgb(214,156,195);stroke-opacity:0;stroke-width:2px;"/>
        <path d="M323.624,464.693C323.624,464.693 323.624,464.693 323.624,464.693C325.014,432.851 299.658,405.491 267.454,404.085L267.454,404.085C235.25,402.679 207.606,427.725 206.216,459.567C206.216,459.567 206.216,459.567 206.216,459.567C204.826,491.409 230.182,518.769 262.386,520.175L262.386,520.175C294.59,521.581 322.234,496.535 323.624,464.693" style="fill:rgb(230,217,245);fill-rule:nonzero;stroke:rgb(219,159,198);stroke-opacity:0;stroke-width:2px;"/>
        <path d="M810.639,450.002C804.019,418.858 772.688,398.732 741.233,405.418C709.778,412.104 689.341,443.234 695.961,474.378C695.961,474.378 695.961,474.378 695.961,474.378C702.581,505.522 733.912,525.648 765.367,518.962C796.822,512.276 817.259,481.146 810.639,450.002C810.639,450.002 810.639,450.002 810.639,450.002" style="fill:rgb(230,217,245);fill-rule:nonzero;stroke:rgb(219,159,198);stroke-opacity:0;stroke-width:2px;"/>
        <path d="M742.08,595.74C742.08,563.692 715.708,537.32 683.66,537.32C651.612,537.32 625.24,563.692 625.24,595.74C625.24,627.788 651.612,654.16 683.66,654.16C715.708,654.16 742.08,627.788 742.08,595.74" style="fill:rgb(230,217,245);fill-rule:nonzero;stroke:rgb(219,159,198);stroke-opacity:0;stroke-width:2px;"/>
        <path d="M392.25,595.76C392.25,563.608 365.792,537.15 333.64,537.15C301.488,537.15 275.03,563.608 275.03,595.76C275.03,627.912 301.488,654.37 333.64,654.37C365.792,654.37 392.25,627.912 392.25,595.76" style="fill:rgb(230,217,245);fill-rule:nonzero;stroke:rgb(219,159,198);stroke-opacity:0;stroke-width:2px;"/>
        <path d="M693.44,729.35C693.44,698.476 668.034,673.07 637.16,673.07C606.286,673.07 580.88,698.476 580.88,729.35C580.88,760.224 606.286,785.63 637.16,785.63C668.034,785.63 693.44,760.224 693.44,729.35" style="fill:rgb(230,217,245);fill-rule:nonzero;stroke:rgb(214,156,195);stroke-opacity:0;stroke-width:2px;"/>
        <path d="M436.24,729.3C436.24,698.492 410.888,673.14 380.08,673.14C349.272,673.14 323.92,698.492 323.92,729.3C323.92,760.108 349.272,785.46 380.08,785.46C410.888,785.46 436.24,760.108 436.24,729.3" style="fill:rgb(230,217,245);fill-rule:nonzero;stroke:rgb(214,156,195);stroke-opacity:0;stroke-width:2px;"/>
        <path d="M341.69,871.85C354.11,888.1 372.26,889.7 391,889.5C448.333,888.893 505.667,888.723 563,888.99C605.78,889.19 631.593,889.157 640.44,888.89C660.01,888.3 676.65,877.43 681.77,858.79C686.17,842.78 680.56,827.4 667.26,817.5C658.28,810.82 648.33,808.75 638.5,808.75C551.753,808.743 465.01,808.747 378.27,808.76C366.56,808.76 355.06,812.4 346.46,820.46C331.99,834.01 329.95,856.49 341.69,871.85" style="fill:rgb(230,217,245);fill-rule:nonzero;stroke:rgb(214,156,195);stroke-opacity:0;stroke-width:2px;"/>
        <path d="M428.27,955.95C428.27,930.408 407.252,909.39 381.71,909.39C356.168,909.39 335.15,930.408 335.15,955.95C335.15,981.492 356.168,1002.51 381.71,1002.51C407.252,1002.51 428.27,981.492 428.27,955.95" style="fill:rgb(230,217,245);fill-rule:nonzero;stroke:rgb(214,156,195);stroke-opacity:0;stroke-width:2px;"/>
        <path d="M682.154,962.341C685.612,937.1 667.396,913.446 641.803,909.94C616.209,906.434 592.303,924.319 588.846,949.559C585.388,974.8 603.604,998.454 629.197,1001.96C654.791,1005.47 678.697,987.581 682.154,962.341" style="fill:rgb(230,217,245);fill-rule:nonzero;stroke:rgb(214,156,195);stroke-opacity:0;stroke-width:2px;"/>
        <path d="M471.69,1006.81C509.47,1040.07 567.23,1011.09 563.34,961.43C561.47,937.56 543.06,917.06 519.75,912.99C497.33,909.077 478.923,915.923 464.53,933.53C460.757,938.157 457.98,943.303 456.2,948.97C449.55,970.22 454.86,992 471.69,1006.81" style="fill:rgb(230,217,245);fill-rule:nonzero;stroke:rgb(214,156,195);stroke-opacity:0;stroke-width:2px;"/>
        <circle cx="213.95" cy="323.56" r="58.48" style="fill:rgb(230,217,245);"/>
        <g transform="matrix(0.992115,0.125333,-0.125333,0.992115,805.32,323.53)">
            <ellipse cx="0" cy="0" rx="58.64" ry="58.45" style="fill:rgb(230,217,245);"/>
        </g>
        <g transform="matrix(0.999048,0.0436194,-0.0436194,0.999048,264.92,462.13)">
            <ellipse cx="0" cy="0" rx="58.76" ry="58.1" style="fill:rgb(230,217,245);"/>
        </g>
        <g transform="matrix(0.978148,-0.207912,0.207912,0.978148,753.3,462.19)">
            <ellipse cx="0" cy="0" rx="58.62" ry="58.04" style="fill:rgb(230,217,245);"/>
        </g>
        <circle cx="683.66" cy="595.74" r="58.42" style="fill:rgb(230,217,245);"/>
        <circle cx="333.64" cy="595.76" r="58.61" style="fill:rgb(230,217,245);"/>
        <circle cx="637.16" cy="729.35" r="56.28" style="fill:rgb(230,217,245);"/>
        <circle cx="380.08" cy="729.3" r="56.16" style="fill:rgb(230,217,245);"/>
        <path d="M341.69,871.85C329.95,856.49 331.99,834.01 346.46,820.46C355.06,812.4 366.56,808.76 378.27,808.76C465.01,808.747 551.753,808.743 638.5,808.75C648.33,808.75 658.28,810.82 667.26,817.5C680.56,827.4 686.17,842.78 681.77,858.79C676.65,877.43 660.01,888.3 640.44,888.89C631.593,889.157 605.78,889.19 563,888.99C505.667,888.723 448.333,888.893 391,889.5C372.26,889.7 354.11,888.1 341.69,871.85Z" style="fill:rgb(230,217,245);fill-rule:nonzero;"/>
        <circle cx="381.71" cy="955.95" r="46.56" style="fill:rgb(255,165,0);"/>
        <g transform="matrix(0.990748,0.135716,-0.135716,0.990748,635.5,955.95)">
            <ellipse cx="0" cy="0" rx="47.09" ry="46.44" style="fill:rgb(255,165,0);"/>
        </g>
        <path d="M471.69,1006.81C454.86,992 449.55,970.22 456.2,948.97C457.98,943.303 460.757,938.157 464.53,933.53C478.923,915.923 497.33,909.077 519.75,912.99C543.06,917.06 561.47,937.56 563.34,961.43C567.23,1011.09 509.47,1040.07 471.69,1006.81Z" style="fill:rgb(255,165,0);fill-rule:nonzero;"/>
    </g>
    <g id="Central-triangle" serif:id="Central triangle">
        <circle cx="362.02" cy="323.53" r="58.41" style="fill:rgb(20,182,179);"/>
        <circle cx="657.07" cy="323.49" r="58.28" style="fill:rgb(20,182,179);"/>
        <circle cx="509.24" cy="323.11" r="57.43" style="fill:rgb(20,182,179);"/>
        <circle cx="426.56" cy="463.31" r="58.46" style="fill:rgb(20,182,179);"/>
        <g transform="matrix(-0.207912,0.978148,-0.978148,-0.207912,591.85,463.29)">
            <ellipse cx="0" cy="0" rx="58.41" ry="57.73" style="fill:rgb(20,182,179);"/>
        </g>
        <circle cx="508.77" cy="596.32" r="57.96" style="fill:rgb(20,182,179);"/>
    </g>
    <g id="Layer2">
        <path d="M562.267,72.05C567.625,42.564 547.691,13.877 518.108,8.5C488.525,3.124 459.772,22.964 454.413,52.45C454.413,52.45 454.413,52.45 454.413,52.45C449.055,81.936 468.989,110.623 498.572,116C528.155,121.376 556.908,101.536 562.267,72.05C562.267,72.05 562.267,72.05 562.267,72.05" style="fill:rgb(151,87,215);fill-rule:nonzero;stroke:rgb(214,156,195);stroke-opacity:0;stroke-width:2px;"/>
        <path d="M537.6,183.81C536.84,147.07 570.89,114.04 608.88,123.71C633.81,130.06 652.69,153.91 653.83,179.51C655.16,209.33 633.84,234.75 604.52,239.25C570.79,244.43 538.32,218.76 537.6,183.81Z" style="fill:rgb(151,87,215);fill-rule:nonzero;"/>
        <path d="M364.57,174.25C368.69,146.03 392.27,122.61 421.93,122.19C443.88,121.87 466.78,136.92 475.42,157.16C483.76,176.67 482.2,198.59 469.77,215.74C456.69,233.77 433.93,243.42 410.94,238.71C381.39,232.65 360.1,204.9 364.57,174.25Z" style="fill:rgb(151,87,215);fill-rule:nonzero;"/>
        <g transform="matrix(1,0,0,1,-172.106,0.500216)">
            <path d="M562.267,72.05C567.625,42.564 547.691,13.877 518.108,8.5C488.525,3.124 459.772,22.964 454.413,52.45C454.413,52.45 454.413,52.45 454.413,52.45C449.055,81.936 468.989,110.623 498.572,116C528.155,121.376 556.908,101.536 562.267,72.05C562.267,72.05 562.267,72.05 562.267,72.05" style="fill:rgb(151,87,215);fill-rule:nonzero;stroke:rgb(214,156,195);stroke-opacity:0;stroke-width:2px;"/>
        </g>
        <g transform="matrix(1,0,0,1,-172.106,0.500216)">
            <path d="M537.6,183.81C536.84,147.07 570.89,114.04 608.88,123.71C633.81,130.06 652.69,153.91 653.83,179.51C655.16,209.33 633.84,234.75 604.52,239.25C570.79,244.43 538.32,218.76 537.6,183.81Z" style="fill:rgb(151,87,215);fill-rule:nonzero;"/>
        </g>
        <g transform="matrix(1,0,0,1,-172.106,0.500216)">
            <path d="M364.57,174.25C368.69,146.03 392.27,122.61 421.93,122.19C443.88,121.87 466.78,136.92 475.42,157.16C483.76,176.67 482.2,198.59 469.77,215.74C456.69,233.77 433.93,243.42 410.94,238.71C381.39,232.65 360.1,204.9 364.57,174.25Z" style="fill:rgb(151,87,215);fill-rule:nonzero;"/>
        </g>
        <g transform="matrix(1,0,0,1,175.398,0)">
            <path d="M562.267,72.05C567.625,42.564 547.691,13.877 518.108,8.5C488.525,3.124 459.772,22.964 454.413,52.45C454.413,52.45 454.413,52.45 454.413,52.45C449.055,81.936 468.989,110.623 498.572,116C528.155,121.376 556.908,101.536 562.267,72.05C562.267,72.05 562.267,72.05 562.267,72.05" style="fill:rgb(151,87,215);fill-rule:nonzero;stroke:rgb(214,156,195);stroke-opacity:0;stroke-width:2px;"/>
        </g>
        <g transform="matrix(1,0,0,1,175.398,0)">
            <path d="M537.6,183.81C536.84,147.07 570.89,114.04 608.88,123.71C633.81,130.06 652.69,153.91 653.83,179.51C655.16,209.33 633.84,234.75 604.52,239.25C570.79,244.43 538.32,218.76 537.6,183.81Z" style="fill:rgb(151,87,215);fill-rule:nonzero;"/>
        </g>
        <g transform="matrix(1,0,0,1,175.398,0)">
            <path d="M364.57,174.25C368.69,146.03 392.27,122.61 421.93,122.19C443.88,121.87 466.78,136.92 475.42,157.16C483.76,176.67 482.2,198.59 469.77,215.74C456.69,233.77 433.93,243.42 410.94,238.71C381.39,232.65 360.1,204.9 364.57,174.25Z" style="fill:rgb(151,87,215);fill-rule:nonzero;"/>
        </g>
    </g>
</svg>
